<svg xmlns="http://www.w3.org/2000/svg" xmlns:xlink="http://www.w3.org/1999/xlink" width="500" zoomAndPan="magnify" viewBox="0 0 375 374.999991" height="500" preserveAspectRatio="xMidYMid meet" version="1.0"><defs><clipPath id="3283479a41"><path d="M 87.078125 65.410156 L 288.078125 65.410156 L 288.078125 266.410156 L 87.078125 266.410156 Z M 87.078125 65.410156 " clip-rule="nonzero"/></clipPath><clipPath id="5a4bced0cf"><path d="M 179 201 L 195 201 L 195 221.183594 L 179 221.183594 Z M 179 201 " clip-rule="nonzero"/></clipPath></defs><g clip-path="url(#3283479a41)"><path fill="#e1a730" d="M 187.578125 266.410156 C 132.160156 266.410156 87.078125 221.328125 87.078125 165.914062 C 87.078125 110.496094 132.160156 65.410156 187.578125 65.410156 C 242.996094 65.410156 288.078125 110.496094 288.078125 165.914062 C 288.078125 221.328125 242.996094 266.410156 187.578125 266.410156 Z M 187.578125 72.4375 C 136.035156 72.4375 94.101562 114.371094 94.101562 165.914062 C 94.101562 217.457031 136.035156 259.386719 187.578125 259.386719 C 239.113281 259.386719 281.050781 217.457031 281.050781 165.914062 C 281.050781 114.371094 239.113281 72.4375 187.578125 72.4375 Z M 187.578125 72.4375 " fill-opacity="1" fill-rule="nonzero"/></g><path fill="#dac0a3" d="M 115.828125 190.269531 C 117.0625 192.285156 124.566406 200.605469 134.347656 212.164062 C 146.039062 225.980469 159.222656 241.546875 160.765625 243.308594 C 163.601562 246.546875 165.6875 244.3125 169.925781 235.835938 C 175.796875 224.097656 187.894531 198.367188 204.898438 174.886719 C 221.902344 151.402344 247.410156 125.492188 253.484375 120.632812 C 259.558594 115.773438 262.390625 112.535156 258.34375 110.914062 C 254.292969 109.296875 222.675781 131.65625 204.226562 151.640625 C 184.417969 173.105469 162.957031 208.136719 157.636719 208.964844 C 153.375 209.625 132.757812 194.164062 126.914062 190.53125 C 120.125 186.308594 112.605469 185.027344 115.828125 190.269531 " fill-opacity="1" fill-rule="nonzero"/><g clip-path="url(#5a4bced0cf)"><path fill="#e1a730" d="M 187.019531 201.761719 C 185.535156 205.023438 182.789062 208.332031 179.304688 209.464844 C 179.488281 215.984375 182.871094 221.179688 187.023438 221.179688 C 191.15625 221.179688 194.53125 216.023438 194.738281 209.539062 C 191.945312 208.164062 188.863281 204.226562 187.019531 201.761719 Z M 187.019531 201.761719 " fill-opacity="1" fill-rule="nonzero"/></g><path fill="#e1a730" d="M 188.535156 159.851562 C 186.691406 163.539062 187.046875 168.589844 190.261719 171.160156 C 193.082031 173.414062 197.132812 173.191406 200.617188 172.28125 C 204.105469 171.367188 207.527344 169.871094 211.128906 169.933594 C 213.179688 169.972656 215.417969 170.480469 217.160156 169.386719 C 219.511719 167.914062 219.503906 164.378906 218.375 161.835938 C 217.453125 159.949219 216.214844 158.296875 214.664062 156.890625 C 213.109375 155.480469 211.351562 154.410156 209.390625 153.679688 C 202.421875 150.867188 192.183594 152.550781 188.535156 159.851562 Z M 188.535156 159.851562 " fill-opacity="1" fill-rule="nonzero"/><path fill="#eeffff" d="M 226.140625 189.996094 C 225.875 186.46875 224.800781 183.210938 222.925781 180.21875 C 221.09375 177.289062 218.667969 174.988281 215.652344 173.324219 C 215.410156 173.191406 215.15625 173.160156 214.886719 173.226562 C 214.621094 173.289062 214.410156 173.4375 214.257812 173.664062 C 214.101562 173.890625 214.042969 174.140625 214.078125 174.414062 C 214.113281 174.6875 214.234375 174.914062 214.445312 175.09375 L 214.453125 175.101562 C 216.71875 177.019531 218.503906 179.3125 219.808594 181.984375 C 221.0625 184.578125 221.707031 187.320312 221.738281 190.203125 C 221.777344 193.039062 221.214844 195.75 220.046875 198.332031 C 218.859375 200.882812 217.199219 203.074219 215.070312 204.902344 C 212.890625 206.6875 210.441406 207.929688 207.71875 208.628906 C 204.960938 209.3125 202.1875 209.367188 199.402344 208.792969 C 197.34375 208.347656 195.40625 207.589844 193.59375 206.515625 C 191.78125 205.4375 190.183594 204.101562 188.800781 202.503906 L 188.820312 202.472656 C 192.511719 199.859375 195.617188 196.671875 198.136719 192.90625 C 198.289062 192.679688 198.425781 192.445312 198.546875 192.199219 C 198.667969 191.957031 198.777344 191.707031 198.867188 191.453125 C 198.960938 191.195312 199.035156 190.933594 199.097656 190.667969 C 199.15625 190.402344 199.199219 190.132812 199.226562 189.863281 C 199.253906 189.59375 199.265625 189.320312 199.257812 189.046875 C 199.253906 188.773438 199.230469 188.503906 199.191406 188.234375 C 199.152344 187.964844 199.097656 187.699219 199.027344 187.4375 C 198.957031 187.171875 198.871094 186.914062 198.765625 186.664062 C 198.664062 186.410156 198.546875 186.164062 198.414062 185.929688 C 198.28125 185.691406 198.136719 185.460938 197.976562 185.242188 C 197.816406 185.023438 197.644531 184.8125 197.457031 184.613281 C 197.273438 184.414062 197.074219 184.230469 196.867188 184.054688 C 196.660156 183.878906 196.441406 183.71875 196.210938 183.570312 C 195.984375 183.425781 195.75 183.292969 195.503906 183.171875 C 195.261719 183.054688 195.011719 182.953125 194.753906 182.863281 C 194.496094 182.777344 194.234375 182.703125 193.96875 182.648438 C 189.34375 181.691406 184.71875 181.6875 180.089844 182.640625 C 179.824219 182.695312 179.5625 182.765625 179.304688 182.855469 C 179.046875 182.941406 178.792969 183.046875 178.550781 183.164062 C 178.304688 183.285156 178.066406 183.417969 177.835938 183.5625 C 177.609375 183.710938 177.390625 183.875 177.179688 184.046875 C 176.972656 184.222656 176.773438 184.410156 176.585938 184.609375 C 176.398438 184.808594 176.226562 185.019531 176.066406 185.242188 C 175.90625 185.460938 175.757812 185.691406 175.625 185.929688 C 175.492188 186.167969 175.375 186.414062 175.273438 186.667969 C 175.167969 186.921875 175.082031 187.179688 175.011719 187.445312 C 174.941406 187.707031 174.886719 187.976562 174.847656 188.246094 C 174.808594 188.519531 174.785156 188.789062 174.78125 189.0625 C 174.777344 189.335938 174.789062 189.609375 174.816406 189.882812 C 174.84375 190.152344 174.886719 190.421875 174.949219 190.691406 C 175.011719 190.957031 175.085938 191.21875 175.179688 191.476562 C 175.273438 191.734375 175.378906 191.984375 175.503906 192.226562 C 175.628906 192.472656 175.765625 192.707031 175.917969 192.933594 C 176.457031 193.734375 177.050781 194.554688 177.707031 195.375 C 179.871094 198.085938 182.363281 200.445312 185.1875 202.453125 C 183.855469 203.828125 182.355469 204.976562 180.683594 205.902344 C 179.011719 206.828125 177.242188 207.492188 175.378906 207.890625 C 172.59375 208.464844 169.820312 208.414062 167.0625 207.730469 C 164.339844 207.027344 161.890625 205.785156 159.710938 204.003906 C 157.582031 202.171875 155.921875 199.980469 154.734375 197.429688 C 153.566406 194.847656 153.003906 192.136719 153.042969 189.300781 C 153.074219 186.417969 153.714844 183.675781 154.972656 181.082031 C 156.277344 178.410156 158.058594 176.117188 160.324219 174.199219 L 160.335938 174.191406 C 160.546875 174.011719 160.667969 173.785156 160.703125 173.511719 C 160.738281 173.238281 160.679688 172.988281 160.523438 172.761719 C 160.371094 172.535156 160.160156 172.386719 159.890625 172.324219 C 159.625 172.257812 159.371094 172.292969 159.128906 172.421875 C 156.113281 174.085938 153.6875 176.386719 151.855469 179.316406 C 149.980469 182.308594 148.90625 185.566406 148.640625 189.09375 C 148.382812 192.664062 148.957031 196.089844 150.371094 199.375 C 151.800781 202.664062 153.894531 205.449219 156.65625 207.730469 C 158.011719 208.84375 159.484375 209.777344 161.0625 210.539062 C 162.644531 211.296875 164.289062 211.859375 166.003906 212.222656 C 167.71875 212.589844 169.449219 212.746094 171.199219 212.695312 C 172.953125 212.644531 174.671875 212.386719 176.363281 211.925781 C 178.449219 211.34375 180.40625 210.460938 182.226562 209.28125 C 184.046875 208.097656 185.648438 206.671875 187.035156 204.996094 C 188.449219 206.898438 190.128906 208.523438 192.078125 209.863281 C 194.027344 211.203125 196.140625 212.191406 198.417969 212.824219 C 200.109375 213.289062 201.828125 213.546875 203.578125 213.597656 C 205.332031 213.648438 207.0625 213.488281 208.777344 213.125 C 210.492188 212.761719 212.136719 212.199219 213.71875 211.4375 C 215.296875 210.679688 216.765625 209.746094 218.125 208.632812 C 220.882812 206.351562 222.980469 203.566406 224.410156 200.277344 C 225.824219 196.992188 226.398438 193.566406 226.140625 189.996094 Z M 226.140625 189.996094 " fill-opacity="1" fill-rule="nonzero"/><path fill="#5c413f" d="M 197.242188 187.734375 C 196.789062 188.675781 195.023438 188.765625 193.296875 187.929688 C 191.574219 187.09375 190.539062 185.652344 190.992188 184.707031 C 191.445312 183.765625 193.210938 183.675781 194.9375 184.511719 C 196.660156 185.347656 197.695312 186.789062 197.242188 187.734375 Z M 197.242188 187.734375 " fill-opacity="1" fill-rule="nonzero"/><path fill="#eeffff" d="M 198.582031 165.175781 C 198.804688 163.820312 199.46875 162.734375 200.570312 161.917969 C 201.109375 161.496094 201.703125 161.167969 202.347656 160.9375 C 202.992188 160.703125 203.65625 160.578125 204.339844 160.558594 C 205.023438 160.539062 205.691406 160.625 206.347656 160.820312 C 207.003906 161.015625 207.613281 161.304688 208.179688 161.695312 C 209.324219 162.449219 210.046875 163.496094 210.351562 164.835938 C 210.367188 164.921875 210.339844 164.992188 210.269531 165.046875 C 210.199219 165.101562 210.125 165.105469 210.046875 165.066406 L 210.039062 165.0625 C 209.101562 164.570312 208.117188 164.1875 207.09375 163.914062 C 205.308594 163.433594 203.535156 163.484375 201.78125 164.070312 C 200.773438 164.398438 199.8125 164.839844 198.902344 165.386719 L 198.898438 165.390625 C 198.824219 165.433594 198.746094 165.433594 198.671875 165.382812 C 198.601562 165.335938 198.570312 165.265625 198.582031 165.175781 Z M 198.582031 165.175781 " fill-opacity="1" fill-rule="nonzero"/><path fill="#eeffff" d="M 164.136719 165.175781 C 164.363281 163.820312 165.027344 162.734375 166.125 161.917969 C 166.667969 161.496094 167.257812 161.167969 167.902344 160.9375 C 168.546875 160.703125 169.210938 160.578125 169.894531 160.558594 C 170.578125 160.539062 171.25 160.625 171.90625 160.820312 C 172.5625 161.015625 173.171875 161.304688 173.734375 161.695312 C 174.878906 162.449219 175.605469 163.496094 175.90625 164.835938 C 175.925781 164.921875 175.898438 164.992188 175.828125 165.046875 C 175.757812 165.101562 175.679688 165.105469 175.601562 165.066406 L 175.597656 165.0625 C 174.65625 164.570312 173.675781 164.1875 172.648438 163.914062 C 170.863281 163.433594 169.09375 163.484375 167.335938 164.070312 C 166.328125 164.398438 165.371094 164.839844 164.460938 165.386719 L 164.457031 165.390625 C 164.378906 165.433594 164.304688 165.433594 164.230469 165.382812 C 164.15625 165.335938 164.125 165.265625 164.136719 165.175781 Z M 164.136719 165.175781 " fill-opacity="1" fill-rule="nonzero"/><path fill="#e1a730" d="M 228.089844 135.03125 C 220.367188 134.972656 213.78125 139.015625 210.707031 148.175781 C 211.582031 148.679688 212.390625 149.273438 213.140625 149.949219 C 215.273438 147.347656 219.308594 145.820312 222.085938 145.417969 C 221.914062 152.195312 224.378906 160.238281 230.714844 161.859375 C 231.632812 162.089844 232.5625 162.179688 233.503906 162.125 C 234.449219 162.074219 235.363281 161.878906 236.25 161.546875 C 237.132812 161.214844 237.949219 160.753906 238.695312 160.171875 C 239.441406 159.589844 240.085938 158.90625 240.625 158.128906 C 246.25 149.941406 238.414062 135.113281 228.089844 135.03125 Z M 228.089844 135.03125 " fill-opacity="1" fill-rule="nonzero"/><path fill="#e1a730" d="M 146.6875 135.03125 C 154.410156 134.972656 161 139.015625 164.074219 148.175781 C 163.199219 148.679688 162.390625 149.273438 161.640625 149.949219 C 159.507812 147.347656 155.46875 145.820312 152.691406 145.417969 C 152.867188 152.195312 150.402344 160.238281 144.066406 161.859375 C 143.148438 162.089844 142.21875 162.179688 141.273438 162.125 C 140.332031 162.074219 139.417969 161.878906 138.53125 161.546875 C 137.648438 161.214844 136.832031 160.753906 136.085938 160.171875 C 135.335938 159.589844 134.695312 158.90625 134.15625 158.128906 C 128.53125 149.941406 136.363281 135.113281 146.6875 135.03125 Z M 146.6875 135.03125 " fill-opacity="1" fill-rule="nonzero"/></svg>